# Blender v2.79 (sub 0) OBJ File: 'ThinkPad.blend'
# www.blender.org
mtllib TrackPoint.mtl
o Circle
v -0.000000 0.069367 -0.231080
v -0.200121 0.069367 -0.115540
v -0.200121 0.069367 0.115540
v 0.000000 0.069367 0.231080
v 0.200121 0.069367 0.115540
v 0.200121 0.069367 -0.115540
v -0.526785 0.316170 -0.304139
v 0.000000 0.316170 -0.608279
v -0.526785 0.316170 0.304140
v 0.000000 0.316170 0.608279
v 0.526785 0.316170 0.304139
v 0.526785 0.316170 -0.304139
v -0.526785 0.069367 -0.304139
v 0.000000 0.069367 -0.608279
v -0.526785 0.069367 0.304140
v 0.000000 0.069367 0.608279
v 0.526785 0.069367 0.304139
v 0.526785 0.069367 -0.304139
v -0.200121 -0.786520 -0.115540
v -0.000000 -0.786520 -0.231080
v -0.200121 -0.786520 0.115540
v 0.000000 -0.786520 0.231080
v 0.200121 -0.786520 0.115540
v 0.200121 -0.786520 -0.115540
vn -0.5000 0.0000 -0.8660
vn 0.0000 1.0000 0.0000
vn 0.5000 0.0000 -0.8660
vn 0.5000 0.0000 0.8660
vn -1.0000 0.0000 0.0000
vn 1.0000 0.0000 0.0000
vn -0.5000 0.0000 0.8660
vn 0.0000 -1.0000 -0.0000
usemtl None
s 1
f 1//1 19//1 2//1
f 9//2 12//2 8//2
f 14//3 12//3 18//3
f 17//4 10//4 16//4
f 15//5 7//5 13//5
f 18//6 11//6 17//6
f 16//7 9//7 15//7
f 13//1 8//1 14//1
f 1//8 13//8 14//8
f 3//8 13//8 2//8
f 4//8 15//8 3//8
f 4//8 17//8 16//8
f 6//8 17//8 5//8
f 1//8 18//8 6//8
f 20//8 23//8 21//8
f 6//3 20//3 1//3
f 4//4 23//4 5//4
f 2//5 21//5 3//5
f 5//6 24//6 6//6
f 3//7 22//7 4//7
f 1//1 20//1 19//1
f 8//2 7//2 9//2
f 9//2 10//2 11//2
f 11//2 12//2 9//2
f 14//3 8//3 12//3
f 17//4 11//4 10//4
f 15//5 9//5 7//5
f 18//6 12//6 11//6
f 16//7 10//7 9//7
f 13//1 7//1 8//1
f 1//8 2//8 13//8
f 3//8 15//8 13//8
f 4//8 16//8 15//8
f 4//8 5//8 17//8
f 6//8 18//8 17//8
f 1//8 14//8 18//8
f 21//8 19//8 20//8
f 20//8 24//8 23//8
f 23//8 22//8 21//8
f 6//3 24//3 20//3
f 4//4 22//4 23//4
f 2//5 19//5 21//5
f 5//6 23//6 24//6
f 3//7 21//7 22//7
